<svg width="132" height="21" viewBox="0 0 132 21" fill="none" xmlns="http://www.w3.org/2000/svg">
<path d="M6.10025 21C3.53362 21 1.50021 20.0504 0 18.1512L2.03342 15.7364C2.55758 16.3695 3.18117 16.876 3.90416 17.2558C4.64522 17.6176 5.38629 17.7984 6.12736 17.7984C6.70575 17.7984 7.18473 17.6628 7.56431 17.3915C7.96195 17.1202 8.16077 16.7765 8.16077 16.3605C8.16077 15.8359 7.80832 15.4109 7.1034 15.0853C6.8865 14.9948 6.29907 14.7687 5.3411 14.407C4.49159 14.0995 3.85897 13.8372 3.44325 13.6202C1.74422 12.8062 0.894703 11.531 0.894703 9.79457C0.894703 8.51034 1.4008 7.44315 2.41299 6.59302C3.4071 5.76098 4.74464 5.34496 6.42559 5.34496C8.52227 5.34496 10.2484 6.05039 11.604 7.46124L9.70617 9.93023C8.67591 8.95349 7.54623 8.46512 6.31714 8.46512C5.82912 8.46512 5.42244 8.59173 5.09709 8.84496C4.78982 9.0801 4.63619 9.36951 4.63619 9.71318C4.63619 10.3282 5.06998 10.7804 5.93757 11.0698C7.87158 11.7933 9.05548 12.2726 9.48927 12.5078C11.1522 13.376 11.9836 14.624 11.9836 16.2519C11.9836 17.6447 11.4414 18.7842 10.3569 19.6705C9.30852 20.5568 7.88965 21 6.10025 21Z" fill="#66D5BB"/>
<path d="M32.483 5.42636C34.2543 5.42636 35.6912 5.97804 36.7938 7.0814C37.9325 8.18475 38.5019 9.72222 38.5019 11.6938V20.6202H34.6791V12.3992C34.6791 11.2959 34.4079 10.4457 33.8657 9.84884C33.3415 9.25194 32.6276 8.95349 31.7238 8.95349C30.7478 8.95349 29.9615 9.27907 29.3651 9.93023C28.7686 10.5633 28.4704 11.4225 28.4704 12.5078V20.6202H24.6475V12.4264C24.6475 11.3411 24.3764 10.491 23.8342 9.87597C23.31 9.26098 22.587 8.95349 21.6652 8.95349C20.7253 8.95349 19.9481 9.27907 19.3335 9.93023C18.7371 10.5814 18.4388 11.4496 18.4388 12.5349V20.6202H14.616V5.83333H18.3575V7.94961C18.7732 7.17183 19.3878 6.55685 20.2011 6.10465C21.0145 5.63437 21.9002 5.40827 22.8581 5.42636C23.798 5.42636 24.6566 5.65246 25.4338 6.10465C26.2291 6.55685 26.8165 7.19897 27.1961 8.03101C27.7383 7.21705 28.4794 6.58398 29.4193 6.13178C30.3592 5.6615 31.3804 5.42636 32.483 5.42636Z" fill="#66D5BB"/>
<path d="M53.0327 7.5969V5.83333H56.6658V20.6202H53.0327V18.9109C51.7675 20.2855 50.195 20.9729 48.3152 20.9729C46.1824 20.9729 44.4291 20.2313 43.0555 18.7481C41.6818 17.2649 40.9949 15.4018 40.9949 13.1589C40.9949 10.9341 41.6908 9.09819 43.0826 7.65116C44.4743 6.18605 46.2185 5.45349 48.3152 5.45349C50.1588 5.45349 51.7314 6.16796 53.0327 7.5969ZM53.087 13.2132C53.087 12.0556 52.6893 11.0517 51.894 10.2016C51.1168 9.36951 50.1317 8.95349 48.9388 8.95349C47.7278 8.95349 46.7337 9.36951 45.9565 10.2016C45.1973 11.0336 44.8177 12.0375 44.8177 13.2132C44.8177 14.407 45.2064 15.4199 45.9836 16.2519C46.7608 17.084 47.7459 17.5 48.9388 17.5C50.1317 17.5 51.1168 17.084 51.894 16.2519C52.6893 15.4018 53.087 14.3889 53.087 13.2132Z" fill="#66D5BB"/>
<path d="M63.9259 20.6202H60.1031V5.83333H63.7632V7.81395C64.6489 6.22222 66.0045 5.42636 67.8301 5.42636C68.4265 5.42636 69.023 5.53488 69.6195 5.75194L69.2941 9.41473C68.6434 9.21576 68.056 9.11628 67.5318 9.11628C66.4112 9.11628 65.5255 9.49612 64.8748 10.2558C64.2422 10.9974 63.9259 12.1098 63.9259 13.593V20.6202Z" fill="#66D5BB"/>
<path d="M81.4023 16.7403L82.541 19.7519C81.3119 20.5659 79.8569 20.9729 78.1759 20.9729C76.4769 20.9729 75.1936 20.4845 74.326 19.5078C73.4584 18.5129 73.0246 17.0568 73.0246 15.1395V9.03488H70.6116V5.83333H73.0517V0.5969H76.8474V5.83333H81.7276V9.03488H76.8474V14.8953C76.8474 16.6318 77.5433 17.5 78.9351 17.5C79.6942 17.5 80.5166 17.2468 81.4023 16.7403Z" fill="#66D5BB"/>
<path d="M95.1787 7.54264V0H99.0015V20.6202H95.26V18.8023C94.0671 20.2494 92.5397 20.9729 90.678 20.9729C88.5633 20.9729 86.8191 20.2403 85.4454 18.7752C84.0536 17.2739 83.3577 15.4199 83.3577 13.2132C83.3577 11.0245 84.0536 9.17959 85.4454 7.67829C86.8552 6.19509 88.5994 5.45349 90.678 5.45349C92.4494 5.45349 93.9496 6.14987 95.1787 7.54264ZM95.3684 13.2132C95.3684 12.0194 94.9889 11.0155 94.2297 10.2016C93.4706 9.36951 92.4855 8.95349 91.2745 8.95349C90.0635 8.95349 89.0694 9.36951 88.2922 10.2016C87.533 11.0155 87.1535 12.0194 87.1535 13.2132C87.1535 14.4251 87.533 15.447 88.2922 16.2791C89.0694 17.093 90.0635 17.5 91.2745 17.5C92.4855 17.5 93.4706 17.093 94.2297 16.2791C94.9889 15.447 95.3684 14.4251 95.3684 13.2132Z" fill="#66D5BB"/>
<path d="M116.808 12.8876C116.808 13.3398 116.763 13.9005 116.673 14.5698H105.584C106.126 16.668 107.563 17.7171 109.895 17.7171C111.612 17.7171 113.202 17.2196 114.666 16.2248L116.185 18.9109C114.305 20.2674 112.154 20.9457 109.732 20.9457C107.147 20.9457 105.159 20.1951 103.767 18.6938C102.394 17.2106 101.707 15.3837 101.707 13.2132C101.707 10.9522 102.421 9.09819 103.849 7.65116C105.277 6.18605 107.129 5.45349 109.407 5.45349C111.558 5.45349 113.329 6.12274 114.721 7.46124C116.112 8.79974 116.808 10.6085 116.808 12.8876ZM109.407 8.62791C108.449 8.62791 107.626 8.90827 106.939 9.46899C106.271 10.0116 105.819 10.7623 105.584 11.7209H113.094C112.913 10.7623 112.497 10.0116 111.847 9.46899C111.196 8.90827 110.383 8.62791 109.407 8.62791Z" fill="#66D5BB"/>
<path d="M127.255 13.186L132 20.6202H127.608L124.788 15.7636L121.833 20.6202H117.414L122.321 13.0775L117.956 5.83333H122.321L124.842 10.3643L127.554 5.83333H131.864L127.255 13.186Z" fill="#66D5BB"/>
</svg>
